<?xml version="1.0" encoding="UTF-8"?>
<svg width="30px" height="32px" viewBox="0 0 30 32" version="1.1" xmlns="http://www.w3.org/2000/svg" xmlns:xlink="http://www.w3.org/1999/xlink">
    <!-- Generator: Sketch 61.2 (89653) - https://sketch.com -->
    <title>Untitled</title>
    <desc>Created with Sketch.</desc>
    <defs>
        <polygon id="path-1" points="0.502177307 0.26 8.8538838 0.26 8.8538838 8.63388723 0.502177307 8.63388723"></polygon>
        <polygon id="path-3" points="0.2652 0.2698 13.735 0.2698 13.735 21.4398 0.2652 21.4398"></polygon>
        <polygon id="path-5" points="0 30 29.735 30 29.735 0.26 0 0.26"></polygon>
    </defs>
    <g id="Page-1" stroke="none" stroke-width="1" fill="none" fill-rule="evenodd">
        <g id="Group-43">
            <polygon id="Fill-1" fill="#EEBC40" points="21.155 21.38 20.225 23.71 17.905 23.71 20.225 25.57 19.295 27.89 21.375 26.29 23.485 27.89 22.555 25.57 24.875 23.71 22.085 23.71"></polygon>
            <polygon id="Fill-2" fill="#EEBC40" points="10.4851 1.8702 9.5551 4.1902 7.2351 4.1902 9.5551 6.0502 8.6251 8.3802 10.7051 6.7802 12.8051 8.3802 11.8751 6.0502 14.2051 4.1902 11.4151 4.1902"></polygon>
            <polygon id="Fill-3" fill="#EEBC40" points="0.2682 28.3523 2.3602 30.4453 16.9622 15.8443 14.8702 13.7503"></polygon>
            <g id="Group-42" transform="translate(0.000000, 0.740000)">
                <path d="M1.115,27.68 L2.315,28.88 L16.525,14.67 L15.325,13.47 L1.115,27.68 Z M2.325,30 C2.205,30 2.085,29.95 1.995,29.86 L0.135,28 C-0.045,27.82 -0.045,27.52 0.135,27.34 L15.005,12.47 C15.185,12.29 15.485,12.29 15.665,12.47 L17.525,14.33 C17.705,14.51 17.705,14.81 17.525,14.99 L2.645,29.87 C2.555,29.96 2.435,30 2.325,30 L2.325,30 Z" id="Fill-4" fill="#363F40"></path>
                <path d="M18.4451,14.0701 L17.7851,13.4101 L20.7051,10.4901 L19.5051,9.2901 L16.5851,12.2101 L15.9241,11.5501 L19.1741,8.3001 C19.3551,8.1201 19.6551,8.1201 19.8351,8.3001 L21.6951,10.1601 C21.8751,10.3401 21.8751,10.6401 21.6951,10.8201 L18.4451,14.0701 Z" id="Fill-6" fill="#363F40"></path>
                <path d="M19.0154,23.5003 L20.2254,24.4303 C20.3744,24.5503 20.4454,24.7503 20.3844,24.9303 L19.9454,26.3703 L21.0844,25.4603 C21.2544,25.3193 21.4944,25.3193 21.6644,25.4603 L22.7544,26.3403 L22.3254,25.0503 C22.2654,24.8703 22.3254,24.6603 22.4754,24.5403 L23.7654,23.5103 L22.3054,23.5103 C22.1054,23.5103 21.9244,23.3803 21.8654,23.1893 L21.3744,21.7203 L20.8844,23.1893 C20.8254,23.3803 20.6454,23.5103 20.4454,23.5103 L19.0154,23.5103 L19.0154,23.5003 Z M19.0444,28.1403 C18.9544,28.1403 18.8654,28.1093 18.7854,28.0603 C18.6154,27.9493 18.5444,27.7293 18.6054,27.5403 L19.4054,24.9703 L17.3744,23.3993 C17.2144,23.2793 17.1554,23.0693 17.2144,22.8803 C17.2754,22.6893 17.4544,22.5693 17.6554,22.5693 L20.1054,22.5693 L20.9244,20.1003 C20.9854,19.9103 21.1644,19.7793 21.3654,19.7793 C21.5654,19.7793 21.7444,19.9103 21.8054,20.1003 L22.6244,22.5693 L25.0754,22.5693 C25.2754,22.5693 25.4454,22.6893 25.5154,22.8803 C25.5844,23.0693 25.5254,23.2703 25.3654,23.3993 L23.2944,25.0603 L24.1244,27.5403 C24.1954,27.7393 24.1154,27.9493 23.9454,28.0693 C23.7754,28.1893 23.5444,28.1803 23.3844,28.0503 L21.3554,26.4203 L19.3254,28.0503 C19.2544,28.1093 19.1454,28.1403 19.0444,28.1403 L19.0444,28.1403 Z" id="Fill-8" fill="#363F40"></path>
                <g id="Group-12" transform="translate(6.000000, 0.000000)">
                    <mask id="mask-2" fill="white">
                        <use xlink:href="#path-1"></use>
                    </mask>
                    <g id="Clip-11"></g>
                    <path d="M2.325,3.9798 L3.535,4.9098 C3.685,5.0298 3.755,5.2298 3.695,5.4098 L3.255,6.8498 L4.395,5.9398 C4.565,5.7998 4.805,5.7998 4.975,5.9398 L6.065,6.8198 L5.635,5.5198 C5.575,5.3398 5.635,5.1298 5.785,5.0098 L7.075,3.9798 L5.615,3.9798 C5.415,3.9798 5.235,3.8498 5.175,3.6598 L4.685,2.1898 L4.195,3.6598 C4.135,3.8498 3.955,3.9798 3.755,3.9798 L2.325,3.9798 Z M2.365,8.6298 C2.275,8.6298 2.185,8.5998 2.105,8.5498 C1.935,8.4298 1.855,8.2198 1.915,8.0298 L2.715,5.4598 L0.685,3.8898 C0.525,3.7698 0.465,3.5598 0.525,3.3698 C0.595,3.1798 0.765,3.0498 0.965,3.0498 L3.415,3.0498 L4.235,0.5798 C4.295,0.3898 4.475,0.2598 4.675,0.2598 C4.875,0.2598 5.055,0.3898 5.115,0.5798 L5.935,3.0498 L8.385,3.0498 C8.585,3.0498 8.755,3.1698 8.825,3.3598 C8.895,3.5498 8.835,3.7498 8.675,3.8798 L6.605,5.5398 L7.435,8.0198 C7.505,8.2198 7.425,8.4298 7.255,8.5498 C7.085,8.6698 6.865,8.6598 6.695,8.5298 L4.665,6.8998 L2.655,8.5298 C2.565,8.5998 2.465,8.6298 2.365,8.6298 L2.365,8.6298 Z" id="Fill-10" fill="#363F40" mask="url(#mask-2)"></path>
                </g>
                <path d="M16.2547,27.2103 C13.1547,27.2103 10.1347,26.1303 7.7347,24.1803 L8.3247,23.4603 C10.5547,25.2793 13.3747,26.2793 16.2547,26.2793 L16.2547,27.2103 Z" id="Fill-13" fill="#363F40"></path>
                <g id="Group-17" transform="translate(16.000000, 0.000000)">
                    <mask id="mask-4" fill="white">
                        <use xlink:href="#path-3"></use>
                    </mask>
                    <g id="Clip-16"></g>
                    <path d="M11.3152,21.4398 L10.5552,20.9108 C12.0252,18.7998 12.8052,16.3198 12.8052,13.7398 C12.8052,6.8198 7.1742,1.1998 0.2652,1.1998 L0.2652,0.2698 C7.6952,0.2698 13.7352,6.3098 13.7352,13.7398 C13.7352,16.5098 12.8952,19.1698 11.3152,21.4398" id="Fill-15" fill="#363F40" mask="url(#mask-4)"></path>
                </g>
                <path d="M5.8152,22.2601 C3.8652,19.8601 2.7852,16.8401 2.7852,13.7401 C2.7852,10.9701 3.6252,8.3101 5.2052,6.0401 L5.9652,6.5701 C4.4952,8.6801 3.7152,11.1601 3.7152,13.7401 C3.7152,16.6201 4.7152,19.4401 6.5352,21.6701 L5.8152,22.2601 Z" id="Fill-18" fill="#363F40"></path>
                <path d="M23.2254,12.8099 C23.7394,12.8099 24.1554,13.2269 24.1554,13.7399 C24.1554,14.2539 23.7394,14.6699 23.2254,14.6699 C22.7114,14.6699 22.2944,14.2539 22.2944,13.7399 C22.2944,13.2269 22.7114,12.8099 23.2254,12.8099" id="Fill-20" fill="#363F40"></path>
                <path d="M18.115,3.0501 C18.629,3.0501 19.045,3.4661 19.045,3.9801 C19.045,4.4931 18.629,4.9101 18.115,4.9101 C17.601,4.9101 17.185,4.4931 17.185,3.9801 C17.185,3.4661 17.601,3.0501 18.115,3.0501" id="Fill-22" fill="#363F40"></path>
                <path d="M10.6848,9.5599 C11.1988,9.5599 11.6148,9.9769 11.6148,10.4899 C11.6148,11.0039 11.1988,11.4199 10.6848,11.4199 C10.1708,11.4199 9.7548,11.0039 9.7548,10.4899 C9.7548,9.9769 10.1708,9.5599 10.6848,9.5599" id="Fill-24" fill="#363F40"></path>
                <path d="M17.1853,18.39 C17.6993,18.39 18.1153,18.806 18.1153,19.32 C18.1153,19.833 17.6993,20.25 17.1853,20.25 C16.6713,20.25 16.2543,19.833 16.2543,19.32 C16.2543,18.806 16.6713,18.39 17.1853,18.39" id="Fill-26" fill="#363F40"></path>
                <path d="M25.0847,16.5296 C25.5987,16.5296 26.0157,16.9466 26.0157,17.4606 C26.0157,17.9736 25.5987,18.3896 25.0847,18.3896 C24.5707,18.3896 24.1547,17.9736 24.1547,17.4606 C24.1547,16.9466 24.5707,16.5296 25.0847,16.5296" id="Fill-28" fill="#363F40"></path>
                <path d="M23.2254,5.8401 C23.7394,5.8401 24.1554,6.2561 24.1554,6.7701 C24.1554,7.2831 23.7394,7.7001 23.2254,7.7001 C22.7114,7.7001 22.2944,7.2831 22.2944,6.7701 C22.2944,6.2561 22.7114,5.8401 23.2254,5.8401" id="Fill-30" fill="#363F40"></path>
                <path d="M7.7952,20.2698 C6.3452,18.3898 5.5752,16.1298 5.5752,13.7398 L6.5052,13.7398 C6.5052,15.9198 7.2052,17.9798 8.5352,19.6998 L7.7952,20.2698 Z" id="Fill-32" fill="#363F40"></path>
                <path d="M26.9451,13.7401 L26.0151,13.7401 C26.0151,12.0301 25.5651,10.3401 24.7151,8.8601 L25.5151,8.3901 C26.4551,10.0201 26.9451,11.8601 26.9451,13.7401" id="Fill-34" fill="#363F40"></path>
                <mask id="mask-6" fill="white">
                    <use xlink:href="#path-5"></use>
                </mask>
                <g id="Clip-37"></g>
                <polygon id="Fill-36" fill="#363F40" mask="url(#mask-6)" points="15.325 7.7 16.255 7.7 16.255 6.77 15.325 6.77"></polygon>
                <polygon id="Fill-38" fill="#363F40" mask="url(#mask-6)" points="10.215 13.74 11.145 13.74 11.145 12.81 10.215 12.81"></polygon>
                <polygon id="Fill-39" fill="#363F40" mask="url(#mask-6)" points="20.905 18.39 21.835 18.39 21.835 17.46 20.905 17.46"></polygon>
                <polygon id="Fill-40" fill="#363F40" mask="url(#mask-6)" points="5.575 12.81 6.505 12.81 6.505 11.88 5.575 11.88"></polygon>
                <polygon id="Fill-41" fill="#363F40" mask="url(#mask-6)" points="14.405 23.501 15.335 23.501 15.335 22.57 14.405 22.57"></polygon>
            </g>
        </g>
    </g>
</svg>