<?xml version="1.0" encoding="utf-8"?>
<!-- Generator: Adobe Illustrator 24.0.1, SVG Export Plug-In . SVG Version: 6.00 Build 0)  -->
<svg version="1.1" id="Laag_1" xmlns="http://www.w3.org/2000/svg" xmlns:xlink="http://www.w3.org/1999/xlink" x="0px" y="0px"
	 viewBox="0 0 34 31" style="enable-background:new 0 0 34 31;" xml:space="preserve">
<style type="text/css">
	.st0{fill:#EEBC40;}
	.st1{fill:#363F40;}
</style>
<title>design-64px-outline_book-open</title>
<desc>Created with Sketch.</desc>
<g>
	<polygon class="st0" points="23.29,20.71 22.36,23.04 20.04,23.04 22.36,24.9 21.43,27.22 23.51,25.62 25.62,27.22 24.69,24.9 
		27.01,23.04 24.22,23.04 	"/>
	<polygon class="st0" points="12.62,1.2 11.69,3.52 9.37,3.52 11.69,5.38 10.76,7.71 12.84,6.11 14.94,7.71 14.01,5.38 16.34,3.52 
		13.55,3.52 	"/>
	
		<rect x="9.27" y="11.1" transform="matrix(0.7071 0.7071 -0.7071 0.7071 18.2983 -1.3227)" class="st0" width="2.96" height="20.65"/>
	<g>
		<g>
			<g>
				<path class="st1" d="M4.46,30.07c-0.12,0-0.24-0.05-0.33-0.14l-1.86-1.86c-0.18-0.18-0.18-0.48,0-0.66l14.87-14.87
					c0.18-0.18,0.48-0.18,0.66,0l1.86,1.86c0.18,0.18,0.18,0.48,0,0.66L4.78,29.94C4.69,30.03,4.57,30.07,4.46,30.07z M3.25,27.75
					l1.2,1.2l14.21-14.21l-1.2-1.2L3.25,27.75z"/>
			</g>
			<g>
				<path class="st1" d="M20.58,14.14l-0.66-0.66l2.92-2.92l-1.2-1.2l-2.92,2.92l-0.66-0.66l3.25-3.25c0.18-0.18,0.48-0.18,0.66,0
					l1.86,1.86c0.18,0.18,0.18,0.48,0,0.66L20.58,14.14z"/>
			</g>
		</g>
		<g>
			<path class="st1" d="M21.18,28.21c-0.09,0-0.18-0.03-0.26-0.08c-0.17-0.11-0.24-0.33-0.18-0.52l0.8-2.57l-2.03-1.57
				c-0.16-0.12-0.22-0.33-0.16-0.52c0.06-0.19,0.24-0.31,0.44-0.31h2.45l0.82-2.47c0.06-0.19,0.24-0.32,0.44-0.32
				c0.2,0,0.38,0.13,0.44,0.32l0.82,2.47h2.45c0.2,0,0.37,0.12,0.44,0.31c0.07,0.19,0.01,0.39-0.15,0.52l-2.07,1.66l0.83,2.48
				c0.07,0.2-0.01,0.41-0.18,0.53c-0.17,0.12-0.4,0.11-0.56-0.02l-2.03-1.63l-2.03,1.63C21.39,28.18,21.28,28.21,21.18,28.21z
				 M21.15,23.57l1.21,0.93c0.15,0.12,0.22,0.32,0.16,0.5l-0.44,1.44l1.14-0.91c0.17-0.14,0.41-0.14,0.58,0l1.09,0.88l-0.43-1.29
				c-0.06-0.18,0-0.39,0.15-0.51l1.29-1.03h-1.46c-0.2,0-0.38-0.13-0.44-0.32l-0.49-1.47l-0.49,1.47c-0.06,0.19-0.24,0.32-0.44,0.32
				H21.15z"/>
		</g>
		<g>
			<path class="st1" d="M10.5,8.7c-0.09,0-0.18-0.03-0.26-0.08C10.07,8.5,9.99,8.29,10.05,8.1l0.8-2.57L8.82,3.96
				C8.66,3.84,8.6,3.63,8.66,3.44C8.73,3.25,8.9,3.12,9.1,3.12h2.45l0.82-2.47c0.06-0.19,0.24-0.32,0.44-0.32
				c0.2,0,0.38,0.13,0.44,0.32l0.82,2.47h2.45c0.2,0,0.37,0.12,0.44,0.31c0.07,0.19,0.01,0.39-0.15,0.52l-2.07,1.66l0.83,2.48
				c0.07,0.2-0.01,0.41-0.18,0.53c-0.17,0.12-0.39,0.11-0.56-0.02l-2.03-1.63L10.79,8.6C10.7,8.67,10.6,8.7,10.5,8.7z M10.46,4.05
				l1.21,0.93c0.15,0.12,0.22,0.32,0.16,0.5l-0.44,1.44l1.14-0.91c0.17-0.14,0.41-0.14,0.58,0l1.09,0.88l-0.43-1.3
				c-0.06-0.18,0-0.39,0.15-0.51l1.29-1.03h-1.46c-0.2,0-0.38-0.13-0.44-0.32l-0.49-1.47l-0.49,1.47c-0.06,0.19-0.24,0.32-0.44,0.32
				H10.46z"/>
		</g>
		<g>
			<path class="st1" d="M18.39,27.28c-3.1,0-6.12-1.08-8.52-3.03l0.59-0.72c2.23,1.82,5.05,2.82,7.93,2.82V27.28z"/>
		</g>
		<g>
			<path class="st1" d="M29.45,21.51l-0.76-0.53c1.47-2.11,2.25-4.59,2.25-7.17c0-6.92-5.63-12.54-12.54-12.54V0.34
				c7.43,0,13.47,6.04,13.47,13.47C31.87,16.58,31.03,19.24,29.45,21.51z"/>
		</g>
		<g>
			<path class="st1" d="M7.95,22.33C6,19.93,4.92,16.91,4.92,13.81c0-2.77,0.84-5.43,2.42-7.7L8.1,6.64
				c-1.47,2.11-2.25,4.59-2.25,7.17c0,2.88,1,5.7,2.82,7.93L7.95,22.33z"/>
		</g>
		<g>
			<circle class="st1" cx="25.36" cy="13.81" r="0.93"/>
		</g>
		<g>
			<circle class="st1" cx="20.25" cy="4.05" r="0.93"/>
		</g>
		<g>
			<circle class="st1" cx="12.82" cy="10.56" r="0.93"/>
		</g>
		<g>
			<circle class="st1" cx="19.32" cy="19.39" r="0.93"/>
		</g>
		<g>
			<circle class="st1" cx="27.22" cy="17.53" r="0.93"/>
		</g>
		<g>
			<circle class="st1" cx="25.36" cy="6.84" r="0.93"/>
		</g>
		<g>
			<path class="st1" d="M9.93,20.34c-1.45-1.88-2.22-4.14-2.22-6.53h0.93c0,2.18,0.7,4.24,2.03,5.96L9.93,20.34z"/>
		</g>
		<g>
			<path class="st1" d="M29.08,13.81h-0.93c0-1.71-0.45-3.4-1.3-4.88l0.8-0.47C28.59,10.09,29.08,11.93,29.08,13.81z"/>
		</g>
		<g>
			<rect x="17.46" y="6.84" class="st1" width="0.93" height="0.93"/>
		</g>
		<g>
			<rect x="12.35" y="12.88" class="st1" width="0.93" height="0.93"/>
		</g>
		<g>
			<rect x="23.04" y="17.53" class="st1" width="0.93" height="0.93"/>
		</g>
		<g>
			<rect x="7.71" y="11.95" class="st1" width="0.93" height="0.93"/>
		</g>
		<g>
			<rect x="16.54" y="22.64" class="st1" width="0.93" height="0.93"/>
		</g>
	</g>
</g>
</svg>
