<?xml version="1.0" encoding="UTF-8"?>
<svg width="30px" height="30px" viewBox="0 0 30 30" version="1.1" xmlns="http://www.w3.org/2000/svg" xmlns:xlink="http://www.w3.org/1999/xlink">
    <!-- Generator: Sketch 61.2 (89653) - https://sketch.com -->
    <title>Untitled</title>
    <desc>Created with Sketch.</desc>
    <defs>
        <polygon id="path-1" points="0.0003 0.0001 15 0.0001 15 14.0601 0.0003 14.0601"></polygon>
        <polygon id="path-3" points="0 0.94 14.9998 0.94 14.9998 15 0 15"></polygon>
        <polygon id="path-5" points="0.9403 0 15 0 15 15 0.9403 15"></polygon>
        <polygon id="path-7" points="0 30 30 30 30 0 0 0"></polygon>
    </defs>
    <g id="Page-1" stroke="none" stroke-width="1" fill="none" fill-rule="evenodd">
        <g id="Group-36">
            <path d="M22.0303,3.2798 C22.8083,3.2798 23.4403,4.0138 23.4403,4.9198 C23.4403,5.8258 22.8083,6.5598 22.0303,6.5598 C21.2513,6.5598 20.6203,5.8258 20.6203,4.9198 C20.6203,4.0138 21.2513,3.2798 22.0303,3.2798" id="Fill-1" fill="#EEBC40"></path>
            <polygon id="Fill-3" fill="#EEBC40" points="27.6367 15.9912 29.9187 18.1042 23.7967 24.7162 21.5147 22.6022"></polygon>
            <path d="M14.0601,15 L13.1201,15 L13.1201,0.94 L0.9401,0.94 L0.9401,13.13 L12.1901,13.13 L12.1901,14.07 L0.4701,14.07 C0.2101,14.06 0.0001,13.85 0.0001,13.59 L0.0001,0.47 C0.0001,0.21 0.2101,0 0.4701,0 L13.5901,0 C13.8501,0 14.0601,0.21 14.0601,0.47 L14.0601,15 Z" id="Fill-5" fill="#363F40"></path>
            <g id="Group-9" transform="translate(15.000000, 0.000000)">
                <mask id="mask-2" fill="white">
                    <use xlink:href="#path-1"></use>
                </mask>
                <g id="Clip-8"></g>
                <path d="M14.5303,14.0601 L0.0003,14.0601 L0.0003,13.1201 L14.0593,13.1201 L14.0593,0.9401 L1.8803,0.9401 L1.8803,12.1901 L0.9403,12.1901 L0.9403,0.4701 C0.9403,0.2101 1.1503,0.0001 1.4103,0.0001 L14.5303,0.0001 C14.7903,0.0001 15.0003,0.2101 15.0003,0.4701 L15.0003,13.5901 C15.0003,13.8501 14.7903,14.0601 14.5303,14.0601" id="Fill-7" fill="#363F40" mask="url(#mask-2)"></path>
            </g>
            <g id="Group-12" transform="translate(0.000000, 15.000000)">
                <mask id="mask-4" fill="white">
                    <use xlink:href="#path-3"></use>
                </mask>
                <g id="Clip-11"></g>
                <path d="M13.5898,15 L0.4698,15 C0.2098,15 -0.0002,14.79 -0.0002,14.53 L-0.0002,1.41 C-0.0002,1.15 0.2098,0.94 0.4698,0.94 L14.9998,0.94 L14.9998,1.88 L0.9398,1.88 L0.9398,14.07 L13.1298,14.07 L13.1298,2.81 L14.0698,2.81 L14.0698,14.53 C14.0598,14.79 13.8498,15 13.5898,15" id="Fill-10" fill="#363F40" mask="url(#mask-4)"></path>
            </g>
            <g id="Group-15" transform="translate(15.000000, 15.000000)">
                <mask id="mask-6" fill="white">
                    <use xlink:href="#path-5"></use>
                </mask>
                <g id="Clip-14"></g>
                <path d="M14.5303,15 L1.4103,15 C1.1503,15 0.9403,14.79 0.9403,14.53 L0.9403,0 L1.8803,0 L1.8803,14.06 L14.0703,14.06 L14.0703,1.88 L2.8093,1.88 L2.8093,0.94 L14.5303,0.94 C14.7903,0.94 15.0003,1.15 15.0003,1.41 L15.0003,14.53 C15.0003,14.79 14.7903,15 14.5303,15" id="Fill-13" fill="#363F40" mask="url(#mask-6)"></path>
            </g>
            <path d="M10.7798,6.5601 L9.3698,6.5601 L9.3698,5.6201 L10.3098,5.6201 L10.3098,3.7501 L3.7498,3.7501 L3.7498,5.6301 L4.6898,5.6301 L4.6898,6.5701 L3.2798,6.5701 C3.0198,6.5701 2.8098,6.3601 2.8098,6.1001 L2.8098,3.2801 C2.8098,3.0201 3.0198,2.8101 3.2798,2.8101 L10.7798,2.8101 C11.0398,2.8101 11.2498,3.0201 11.2498,3.2801 L11.2498,6.0901 C11.2498,6.3501 11.0398,6.5601 10.7798,6.5601" id="Fill-16" fill="#363F40"></path>
            <path d="M8.4399,10.7798 L7.4999,10.7798 L7.4999,5.1598 C7.4999,4.8998 7.7099,4.6898 7.9699,4.6898 L9.3799,4.6898 L9.3799,5.6298 L8.4399,5.6298 L8.4399,10.7798 Z" id="Fill-18" fill="#363F40"></path>
            <path d="M6.5601,10.7798 L5.6201,10.7798 L5.6201,5.6198 L4.6901,5.6198 L4.6901,4.6898 L6.1001,4.6898 C6.3601,4.6898 6.5701,4.8998 6.5701,5.1598 L6.5701,10.7798 L6.5601,10.7798 Z" id="Fill-20" fill="#363F40"></path>
            <mask id="mask-8" fill="white">
                <use xlink:href="#path-7"></use>
            </mask>
            <g id="Clip-23"></g>
            <polygon id="Fill-22" fill="#363F40" mask="url(#mask-8)" points="5.16 11.25 8.91 11.25 8.91 10.31 5.16 10.31"></polygon>
            <path d="M24.9805,13.9302 L19.6905,8.6402 L16.7405,11.5902 L16.0805,10.9302 L19.3605,7.6502 C19.5405,7.4702 19.8395,7.4702 20.0195,7.6502 L25.6395,13.2702 L24.9805,13.9302 Z" id="Fill-24" fill="#363F40" mask="url(#mask-8)"></path>
            <path d="M22.3604,10.6401 L21.7004,9.9801 L26.3894,5.2901 C26.5704,5.1101 26.8704,5.1101 27.0494,5.2901 L29.8604,8.1001 L29.2004,8.7701 L26.7194,6.2901 L22.3604,10.6401 Z" id="Fill-25" fill="#363F40" mask="url(#mask-8)"></path>
            <path d="M22.0303,3.75 C21.5093,3.75 21.0903,4.17 21.0903,4.69 C21.0903,5.21 21.5093,5.63 22.0303,5.63 C22.5503,5.63 22.9693,5.21 22.9693,4.69 C22.9693,4.17 22.5503,3.75 22.0303,3.75 M22.0303,6.56 C21.0003,6.56 20.1503,5.72 20.1503,4.68 C20.1503,3.64 21.0003,2.81 22.0303,2.81 C23.0593,2.81 23.9103,3.65 23.9103,4.69 C23.9103,5.73 23.0703,6.56 22.0303,6.56" id="Fill-26" fill="#363F40" mask="url(#mask-8)"></path>
            <polygon id="Fill-27" fill="#363F40" mask="url(#mask-8)" points="2.81 19.69 11.25 19.69 11.25 18.75 2.81 18.75"></polygon>
            <polygon id="Fill-28" fill="#363F40" mask="url(#mask-8)" points="2.81 21.559 11.25 21.559 11.25 20.62 2.81 20.62"></polygon>
            <polygon id="Fill-29" fill="#363F40" mask="url(#mask-8)" points="2.81 23.44 11.25 23.44 11.25 22.5 2.81 22.5"></polygon>
            <polygon id="Fill-30" fill="#363F40" mask="url(#mask-8)" points="2.81 25.32 11.25 25.32 11.25 24.38 2.81 24.38"></polygon>
            <polygon id="Fill-31" fill="#363F40" mask="url(#mask-8)" points="2.81 27.19 7.5 27.19 7.5 26.25 2.81 26.25"></polygon>
            <polygon id="Fill-32" fill="#363F40" mask="url(#mask-8)" points="23.1055 22.1621 29.2015 16.0671 29.8665 16.7311 23.7705 22.8271"></polygon>
            <path d="M19.2197,27.1904 C19.0997,27.1904 18.9807,27.1394 18.8897,27.0494 C18.7497,26.9104 18.7097,26.7104 18.7897,26.5304 L20.6697,22.3094 C20.6907,22.2594 20.7307,22.2104 20.7697,22.1694 L26.8607,16.0804 L27.5197,16.7404 L21.4907,22.7694 L20.1507,25.7994 L23.1797,24.4604 L29.2097,18.4294 L29.8697,19.0894 L23.7807,25.1794 C23.7407,25.2194 23.6907,25.2504 23.6397,25.2804 L19.4197,27.1604 C19.3497,27.1694 19.2807,27.1904 19.2197,27.1904" id="Fill-33" fill="#363F40" mask="url(#mask-8)"></path>
            <polygon id="Fill-34" fill="#363F40" mask="url(#mask-8)" points="20.7607 22.8262 21.4257 22.1612 23.7657 24.5022 23.1017 25.1672"></polygon>
            <polygon id="Fill-35" fill="#363F40" mask="url(#mask-8)" points="19.22 27.19 27.191 27.19 27.191 26.25 19.22 26.25"></polygon>
        </g>
    </g>
</svg>