<?xml version="1.0" encoding="utf-8"?>
<!-- Generator: Adobe Illustrator 24.0.1, SVG Export Plug-In . SVG Version: 6.00 Build 0)  -->
<svg version="1.1" id="Laag_1" xmlns="http://www.w3.org/2000/svg" xmlns:xlink="http://www.w3.org/1999/xlink" x="0px" y="0px"
	 viewBox="0 0 34 31" style="enable-background:new 0 0 34 31;" xml:space="preserve">
<style type="text/css">
	.st0{fill:#EEBC40;}
	.st1{fill:#363F40;}
</style>
<title>design-64px-outline_book-open</title>
<desc>Created with Sketch.</desc>
<g>
	<ellipse class="st0" cx="24.03" cy="5.42" rx="1.41" ry="1.64"/>
	
		<rect x="26.16" y="16.35" transform="matrix(0.7338 0.6794 -0.6794 0.7338 21.5484 -13.2794)" class="st0" width="3.11" height="9.01"/>
	<g>
		<g>
			<path class="st1" d="M16.06,15.5h-0.94V1.44H2.94v12.19h11.25v0.94H2.47C2.21,14.56,2,14.35,2,14.09V0.97
				C2,0.71,2.21,0.5,2.47,0.5h13.12c0.26,0,0.47,0.21,0.47,0.47V15.5z"/>
		</g>
		<g>
			<path class="st1" d="M31.53,14.56H17v-0.94h14.06V1.44H18.88v11.25h-0.94V0.97c0-0.26,0.21-0.47,0.47-0.47h13.12
				C31.79,0.5,32,0.71,32,0.97v13.12C32,14.35,31.79,14.56,31.53,14.56z"/>
		</g>
		<g>
			<path class="st1" d="M15.59,30.5H2.47C2.21,30.5,2,30.29,2,30.03V16.91c0-0.26,0.21-0.47,0.47-0.47H17v0.94H2.94v12.19h12.19
				V18.31h0.94v11.72C16.06,30.29,15.85,30.5,15.59,30.5z"/>
		</g>
		<g>
			<path class="st1" d="M31.53,30.5H18.41c-0.26,0-0.47-0.21-0.47-0.47V15.5h0.94v14.06h12.19V17.38H19.81v-0.94h11.72
				c0.26,0,0.47,0.21,0.47,0.47v13.12C32,30.29,31.79,30.5,31.53,30.5z"/>
		</g>
		<g>
			<path class="st1" d="M12.78,7.06h-1.41V6.12h0.94V4.25H5.75v1.88h0.94v0.94H5.28c-0.26,0-0.47-0.21-0.47-0.47V3.78
				c0-0.26,0.21-0.47,0.47-0.47h7.5c0.26,0,0.47,0.21,0.47,0.47v2.81C13.25,6.85,13.04,7.06,12.78,7.06z"/>
		</g>
		<g>
			<path class="st1" d="M10.44,11.28H9.5V5.66c0-0.26,0.21-0.47,0.47-0.47h1.41v0.94h-0.94V11.28z"/>
		</g>
		<g>
			<path class="st1" d="M8.56,11.28H7.62V6.12H6.69V5.19h1.41c0.26,0,0.47,0.21,0.47,0.47V11.28z"/>
		</g>
		<g>
			<rect x="7.16" y="10.81" class="st1" width="3.75" height="0.94"/>
		</g>
		<g>
			<path class="st1" d="M26.98,14.43l-5.29-5.29l-2.95,2.95l-0.66-0.66l3.28-3.28c0.18-0.18,0.48-0.18,0.66,0l5.62,5.62L26.98,14.43
				z"/>
		</g>
		<g>
			<path class="st1" d="M24.36,11.14l-0.66-0.66l4.69-4.69c0.18-0.18,0.48-0.18,0.66,0l2.81,2.81L31.2,9.27l-2.48-2.48L24.36,11.14z
				"/>
		</g>
		<g>
			<path class="st1" d="M24.03,7.06c-1.03,0-1.88-0.84-1.88-1.88S23,3.31,24.03,3.31c1.03,0,1.88,0.84,1.88,1.88
				S25.07,7.06,24.03,7.06z M24.03,4.25c-0.52,0-0.94,0.42-0.94,0.94s0.42,0.94,0.94,0.94c0.52,0,0.94-0.42,0.94-0.94
				S24.55,4.25,24.03,4.25z"/>
		</g>
		<g>
			<rect x="4.81" y="19.25" class="st1" width="8.44" height="0.94"/>
		</g>
		<g>
			<rect x="4.81" y="21.12" class="st1" width="8.44" height="0.94"/>
		</g>
		<g>
			<rect x="4.81" y="23" class="st1" width="8.44" height="0.94"/>
		</g>
		<g>
			<rect x="4.81" y="24.88" class="st1" width="8.44" height="0.94"/>
		</g>
		<g>
			<rect x="4.81" y="26.75" class="st1" width="4.69" height="0.94"/>
		</g>
		<g>
			
				<rect x="24.18" y="19.48" transform="matrix(0.7071 -0.7071 0.7071 0.7071 -5.7661 25.9856)" class="st1" width="8.62" height="0.94"/>
		</g>
		<g>
			<path class="st1" d="M21.22,27.69c-0.12,0-0.24-0.05-0.33-0.14c-0.14-0.14-0.18-0.34-0.1-0.52l1.88-4.22
				c0.02-0.05,0.06-0.1,0.1-0.14l6.09-6.09l0.66,0.66l-6.03,6.03l-1.34,3.03l3.03-1.34l6.03-6.03l0.66,0.66l-6.09,6.09
				c-0.04,0.04-0.09,0.07-0.14,0.1l-4.22,1.88C21.35,27.67,21.28,27.69,21.22,27.69z"/>
		</g>
		<g>
			
				<rect x="23.8" y="22.51" transform="matrix(0.7071 -0.7071 0.7071 0.7071 -9.9849 24.2382)" class="st1" width="0.94" height="3.31"/>
		</g>
		<g>
			<rect x="21.22" y="26.75" class="st1" width="7.97" height="0.94"/>
		</g>
	</g>
</g>
</svg>
