<?xml version="1.0" encoding="utf-8"?>
<!-- Generator: Adobe Illustrator 24.0.1, SVG Export Plug-In . SVG Version: 6.00 Build 0)  -->
<svg version="1.1" id="Laag_1" xmlns="http://www.w3.org/2000/svg" xmlns:xlink="http://www.w3.org/1999/xlink" x="0px" y="0px"
	 viewBox="0 0 34 31" style="enable-background:new 0 0 34 31;" xml:space="preserve">
<style type="text/css">
	.st0{fill:#EEBC40;}
	.st1{fill:#363F40;}
</style>
<title>design-64px-outline_book-open</title>
<desc>Created with Sketch.</desc>
<g>
	<rect x="4.26" y="13" class="st0" width="3.73" height="3.73"/>
	<polygon class="st0" points="28.7,13 16.7,13 16.25,13 16.25,13.41 15.84,13.41 15.84,13.48 15.42,13.48 15.42,14.24 15.01,14.24 
		15.01,15.79 15.42,15.79 15.42,16.32 15.84,16.32 15.84,16.73 16.7,16.73 16.7,17.15 29.15,17.15 29.15,13 	"/>
	<g>
		<path class="st1" d="M31.65,13.91l-0.19-0.14v0.03l-2-1.13h-0.09l-4.38,0V3.75c0-1.3-1.06-2.36-2.36-2.36h-12.4
			c-1.3,0-2.36,1.06-2.36,2.36v8.92l-6.03,0c0,0,0,0,0,0c-0.35,0-0.67,0.14-0.92,0.38c-0.25,0.25-0.38,0.57-0.38,0.92v1.95
			c0,0.35,0.14,0.67,0.38,0.92c0.25,0.25,0.57,0.38,0.92,0.38c0,0,0,0,0,0l6.03,0v10.14c0,1.24,1.01,2.25,2.25,2.25h12.63
			c1.24,0,2.25-1.01,2.25-2.25V17.22l4.38,0h0.1l2.05-1.16l0,0.01l0.04-0.04l1.92-1.09L31.65,13.91z M14.64,14.94
			c0,1.26,1.02,2.28,2.28,2.28l0.31-0.01l2.09,0c-0.62,0.65-1.48,1.03-2.4,1.03c-1.82,0-3.3-1.48-3.3-3.3s1.48-3.3,3.3-3.3
			c0.92,0,1.78,0.38,2.39,1.03l-2.39,0C15.66,12.67,14.64,13.69,14.64,14.94z M15.29,14.94c0-0.11,0.01-0.22,0.03-0.33l13.39,0
			c-0.03,0.1-0.04,0.2-0.04,0.31c0,0.12,0.02,0.24,0.05,0.35l-13.4,0C15.3,15.17,15.29,15.06,15.29,14.94z M28.73,13.97l-13.12,0
			c0.3-0.4,0.76-0.66,1.29-0.66l0.05,0l11.74,0c-0.02,0.09-0.03,0.17-0.03,0.26C28.66,13.72,28.69,13.85,28.73,13.97z M10.22,2.03
			h12.4c0.95,0,1.72,0.77,1.72,1.72v1.54H8.5V3.75C8.5,2.81,9.27,2.03,10.22,2.03z M4.1,16.57l-0.89,0v-3.26l0.89,0V16.57z
			 M4.75,14.62l3.11,0v0.66l-3.11,0V14.62z M7.86,13.97l-3.11,0v-0.66l3.11,0V13.97z M1.82,16.57C1.82,16.57,1.82,16.57,1.82,16.57
			c-0.18,0-0.34-0.07-0.46-0.19c-0.12-0.12-0.19-0.29-0.19-0.46v-1.95c0-0.18,0.07-0.34,0.19-0.46c0.12-0.12,0.29-0.19,0.46-0.19
			c0,0,0,0,0,0l0.75,0v3.26L1.82,16.57z M4.75,16.57v-0.66l3.11,0v0.66L4.75,16.57z M22.74,28.97H10.11c-0.88,0-1.6-0.72-1.6-1.6
			v-2.33h15.84v2.33C24.34,28.25,23.62,28.97,22.74,28.97z M24.34,24.39H8.5V5.93h15.84v6.74l-4.2,0C19.4,11.62,18.21,11,16.92,11
			c-2.18,0-3.95,1.77-3.95,3.95s1.77,3.95,3.95,3.95c1.29,0,2.49-0.62,3.23-1.68l4.2,0V24.39z M16.79,16.57
			c-0.48-0.04-0.9-0.29-1.18-0.65l13.1,0c-0.03,0.11-0.05,0.22-0.05,0.34c0,0.1,0.01,0.21,0.04,0.31L16.79,16.57z M29.37,16.53
			c-0.04-0.08-0.06-0.18-0.06-0.27c0-0.13,0.05-0.27,0.14-0.37c0.14-0.17,0.14-0.42,0-0.59c-0.09-0.11-0.14-0.24-0.14-0.37
			c0-0.13,0.05-0.27,0.14-0.37c0.14-0.17,0.14-0.42,0-0.59c-0.09-0.11-0.14-0.24-0.14-0.37c0-0.08,0.02-0.15,0.05-0.22l2.1,1.19v0.8
			L29.37,16.53z"/>
		<rect x="13.3" y="3.52" class="st1" width="6.24" height="0.64"/>
		<path class="st1" d="M16.42,25.34c-0.93,0-1.69,0.76-1.69,1.69s0.76,1.69,1.69,1.69s1.69-0.76,1.69-1.69S17.35,25.34,16.42,25.34z
			 M16.42,28.07c-0.58,0-1.05-0.47-1.05-1.05c0-0.58,0.47-1.05,1.05-1.05c0.58,0,1.05,0.47,1.05,1.05
			C17.47,27.6,17,28.07,16.42,28.07z"/>
		
			<rect x="28.06" y="18.12" transform="matrix(0.7071 -0.7071 0.7071 0.7071 -6.3757 26.153)" class="st1" width="0.64" height="5.3"/>
		
			<rect x="25.73" y="8.72" transform="matrix(0.7071 -0.7071 0.7071 0.7071 1.9214 22.7164)" class="st1" width="5.3" height="0.64"/>
		
			<rect x="1.63" y="20.45" transform="matrix(0.7071 -0.7071 0.7071 0.7071 -13.4359 9.1084)" class="st1" width="5.3" height="0.64"/>
		
			<rect x="3.95" y="6.39" transform="matrix(0.7071 -0.7071 0.7071 0.7071 -5.1387 5.6716)" class="st1" width="0.64" height="5.3"/>
		<path class="st1" d="M12.16,13.48l-0.62-0.18c-0.16,0.52-0.23,1.06-0.23,1.61c0,0.6,0.1,1.2,0.28,1.76l0.61-0.2
			c-0.17-0.5-0.25-1.03-0.25-1.56C11.96,14.42,12.03,13.94,12.16,13.48z"/>
		<path class="st1" d="M17,21.41c-0.29,0-0.58-0.02-0.86-0.06l-0.08,0.64c0.31,0.04,0.63,0.06,0.95,0.06c0.96,0,1.89-0.19,2.77-0.56
			l-0.25-0.59C18.72,21.24,17.88,21.41,17,21.41z"/>
		<path class="st1" d="M23.15,9.8l0.49-0.41c-0.88-1.05-2-1.89-3.25-2.42l-0.25,0.59C21.3,8.06,22.34,8.83,23.15,9.8z"/>
		<path class="st1" d="M11.54,9.76c-0.53,0.57-0.96,1.21-1.29,1.9l0.58,0.28c0.3-0.64,0.7-1.22,1.18-1.74L11.54,9.76z"/>
	</g>
</g>
</svg>
