<?xml version="1.0" encoding="utf-8"?>
<!-- Generator: Adobe Illustrator 24.0.1, SVG Export Plug-In . SVG Version: 6.00 Build 0)  -->
<svg version="1.1" id="Laag_1" xmlns="http://www.w3.org/2000/svg" xmlns:xlink="http://www.w3.org/1999/xlink" x="0px" y="0px"
	 viewBox="0 0 34 31" style="enable-background:new 0 0 34 31;" xml:space="preserve">
<style type="text/css">
	.st0{fill:#EEBC40;}
	.st1{fill:#363F40;}
</style>
<title>design-64px-outline_book-open</title>
<desc>Created with Sketch.</desc>
<g>
	<rect x="12.02" y="1.66" class="st0" width="11.09" height="11.48"/>
	<rect x="2.9" y="6.71" class="st0" width="5.05" height="17.9"/>
	<g>
		<path class="st1" d="M10.35,17.08v12.74c0,0,0,0,0,0.01c0,0,0,0.01,0,0.01c0,0.03,0.01,0.06,0.02,0.09c0,0,0,0.01,0,0.01
			c0,0,0,0,0,0.01c0.01,0.03,0.03,0.06,0.05,0.09c0,0.01,0.01,0.01,0.01,0.01c0.02,0.02,0.04,0.04,0.06,0.06
			c0,0,0.01,0.01,0.01,0.01c0.03,0.02,0.05,0.03,0.09,0.04c0.01,0,0.01,0,0.02,0.01c0.03,0.01,0.06,0.02,0.1,0.02h21.05c0,0,0,0,0,0
			c0.2,0,0.36-0.16,0.36-0.36c0-0.01,0-0.02,0-0.04v-12.7c0,0,0,0,0,0c0,0,0,0,0,0c0-0.03-0.01-0.07-0.02-0.1c0,0,0-0.01,0-0.01
			c0,0,0-0.01,0-0.01c-0.01-0.03-0.03-0.06-0.05-0.09c0,0-0.01-0.01-0.01-0.01c-0.02-0.02-0.04-0.04-0.06-0.06
			c0,0-0.01-0.01-0.01-0.01c-0.03-0.02-0.06-0.03-0.09-0.04c-0.01,0-0.01,0-0.02-0.01c-0.03-0.01-0.07-0.02-0.1-0.02H10.71
			c-0.03,0-0.07,0.01-0.1,0.02c-0.01,0-0.01,0-0.02,0.01c-0.03,0.01-0.06,0.03-0.09,0.04c0,0-0.01,0.01-0.01,0.01
			c-0.02,0.02-0.04,0.04-0.06,0.06c0,0-0.01,0.01-0.01,0.01c-0.02,0.03-0.03,0.06-0.05,0.09c0,0,0,0.01,0,0.01c0,0,0,0.01,0,0.01
			C10.36,17.01,10.35,17.05,10.35,17.08C10.35,17.08,10.35,17.08,10.35,17.08C10.35,17.08,10.35,17.08,10.35,17.08z M11.06,17.79
			l7.32,5.43l-7.32,5.86V17.79z M11.72,29.46l7.25-5.8l2.04,1.52c0.06,0.05,0.14,0.07,0.21,0.07c0.07,0,0.15-0.02,0.21-0.07
			l2.04-1.52l7.25,5.8H11.72z M31.4,29.08l-7.32-5.86l7.32-5.43V29.08z M30.68,17.44l-7.39,5.48c0,0,0,0,0,0l-2.05,1.52l-2.05-1.52
			c0,0,0,0,0,0l-7.39-5.48H30.68z"/>
		<path class="st1" d="M26.35,9.59c1.2,0,2.18-0.98,2.18-2.18c0-1.2-0.98-2.18-2.18-2.18c-1.2,0-2.18,0.98-2.18,2.18
			C24.17,8.61,25.15,9.59,26.35,9.59z M26.35,5.95c0.81,0,1.46,0.66,1.46,1.46c0,0.81-0.66,1.46-1.46,1.46
			c-0.81,0-1.46-0.66-1.46-1.46C24.88,6.6,25.54,5.95,26.35,5.95z"/>
		<path class="st1" d="M26.35,8.22c0.45,0,0.81-0.36,0.81-0.81c0-0.45-0.36-0.81-0.81-0.81c-0.45,0-0.81,0.36-0.81,0.81
			C25.53,7.86,25.9,8.22,26.35,8.22z M26.35,7.31c0.05,0,0.1,0.04,0.1,0.1s-0.04,0.1-0.1,0.1c-0.05,0-0.1-0.04-0.1-0.1
			S26.29,7.31,26.35,7.31z"/>
		<path class="st1" d="M10.71,13.8h1.56h11.18c0.2,0,0.36-0.16,0.36-0.36v-0.42c0.79,0.36,1.67,0.55,2.54,0.55
			c3.4,0,6.16-2.76,6.16-6.16s-2.76-6.16-6.16-6.16c-0.88,0-1.75,0.19-2.54,0.55V1.38c0-0.2-0.16-0.36-0.36-0.36H12.27h-1.56
			c-0.2,0-0.36,0.16-0.36,0.36v12.06C10.35,13.64,10.51,13.8,10.71,13.8z M26.35,1.96c3,0,5.44,2.44,5.44,5.44s-2.44,5.44-5.44,5.44
			c-0.89,0-1.77-0.22-2.54-0.63V2.59C24.58,2.18,25.46,1.96,26.35,1.96z M23.09,13.08H12.63V1.74h10.46V13.08z M11.06,1.74h0.85
			v11.34h-0.85V1.74z"/>
		<path class="st1" d="M16.15,8.13l-0.53,1.63c-0.05,0.15,0,0.31,0.13,0.4c0.13,0.09,0.29,0.09,0.42,0l1.39-1.01l1.39,1.01
			c0.06,0.05,0.14,0.07,0.21,0.07c0.07,0,0.15-0.02,0.21-0.07c0.13-0.09,0.18-0.25,0.13-0.4l-0.53-1.63l1.39-1.01
			c0.13-0.09,0.18-0.25,0.13-0.4c-0.05-0.15-0.18-0.25-0.34-0.25h-1.71L17.9,4.84c-0.05-0.15-0.18-0.25-0.34-0.25
			s-0.29,0.1-0.34,0.25l-0.53,1.63h-1.71c-0.15,0-0.29,0.1-0.34,0.25c-0.05,0.15,0,0.31,0.13,0.4L16.15,8.13z M16.95,7.19
			c0.15,0,0.29-0.1,0.34-0.25l0.27-0.83l0.27,0.83c0.05,0.15,0.18,0.25,0.34,0.25h0.88L18.34,7.7c-0.13,0.09-0.18,0.25-0.13,0.4
			l0.27,0.83l-0.71-0.51c-0.13-0.09-0.29-0.09-0.42,0l-0.71,0.51l0.27-0.83c0.05-0.15,0-0.31-0.13-0.4l-0.71-0.51H16.95z"/>
		<path class="st1" d="M2.58,24.72c0.01,0.02,0.01,0.04,0.02,0.05c0,0,0,0.01,0,0.01l2.56,5.21c0.06,0.12,0.18,0.2,0.32,0.2
			c0.14,0,0.26-0.08,0.32-0.2l2.56-5.21c0,0,0-0.01,0-0.01c0.01-0.02,0.01-0.03,0.02-0.05c0-0.01,0-0.01,0.01-0.02
			c0.01-0.02,0.01-0.05,0.01-0.08V2.9c0-1.15-0.94-2.09-2.09-2.09H4.65c-1.15,0-2.09,0.94-2.09,2.09v21.73c0,0.03,0,0.05,0.01,0.08
			C2.58,24.71,2.58,24.72,2.58,24.72z M3.5,24.98h3.97l-1.61,3.28H5.11L3.5,24.98z M4.99,24.27V6.94h0.97v17.33H4.99z M4.28,24.27
			h-1V6.94h1V24.27z M6.68,24.27V6.94h1v17.33H6.68z M7.68,6.22h-4.4V4.9h4.4V6.22z M5.46,28.98H5.5l-0.02,0.05L5.46,28.98z
			 M4.65,1.52h1.65c0.76,0,1.37,0.62,1.37,1.37v1.29h-4.4V2.9C3.28,2.14,3.9,1.52,4.65,1.52z"/>
	</g>
</g>
</svg>
