<?xml version="1.0" encoding="UTF-8"?>
<svg width="30px" height="31px" viewBox="0 0 30 31" version="1.1" xmlns="http://www.w3.org/2000/svg" xmlns:xlink="http://www.w3.org/1999/xlink">
    <!-- Generator: Sketch 61.2 (89653) - https://sketch.com -->
    <title>Untitled</title>
    <desc>Created with Sketch.</desc>
    <defs>
        <polygon id="path-1" points="0.7897 0.5404 22.5597 0.5404 22.5597 14 0.7897 14"></polygon>
        <polygon id="path-3" points="0 30 29.95 30 29.95 0.62 0 0.62"></polygon>
    </defs>
    <g id="Page-1" stroke="none" stroke-width="1" fill="none" fill-rule="evenodd">
        <g id="Group-15">
            <polygon id="Fill-1" fill="#EEBC40" points="9.46 13.33 20.55 13.33 20.55 1.85 9.46 1.85"></polygon>
            <polygon id="Fill-2" fill="#EEBC40" points="0.34 24.8 5.39 24.8 5.39 6.9 0.34 6.9"></polygon>
            <g id="Group-14" transform="translate(0.000000, 0.380000)">
                <g id="Group-5" transform="translate(7.000000, 16.000000)">
                    <mask id="mask-2" fill="white">
                        <use xlink:href="#path-1"></use>
                    </mask>
                    <g id="Clip-4"></g>
                    <path d="M21.1197,1.2504 L13.7297,6.7294 L11.6807,8.2504 L9.6307,6.7294 L2.2397,1.2504 L21.1197,1.2504 Z M21.8407,12.8904 L14.5197,7.0294 L21.8407,1.6004 L21.8407,12.8904 Z M2.1607,13.2704 L9.4097,7.4704 L11.4497,8.9894 C11.5107,9.0404 11.5907,9.0604 11.6597,9.0604 C11.7297,9.0604 11.8097,9.0404 11.8697,8.9894 L13.9097,7.4704 L21.1597,13.2704 L2.1607,13.2704 Z M1.4997,1.6004 L8.8197,7.0294 L1.4997,12.8904 L1.4997,1.6004 Z M0.7897,0.8904 L0.7897,13.6304 L0.7897,13.6404 L0.7897,13.6494 C0.7897,13.6804 0.7997,13.7104 0.8097,13.7394 L0.8097,13.7504 L0.8097,13.7604 C0.8197,13.7904 0.8397,13.8194 0.8597,13.8504 C0.8597,13.8594 0.8697,13.8594 0.8697,13.8594 C0.8907,13.8804 0.9107,13.8994 0.9307,13.9204 L0.9397,13.9304 C0.9697,13.9494 0.9897,13.9604 1.0297,13.9704 C1.0397,13.9704 1.0397,13.9704 1.0497,13.9794 C1.0797,13.9894 1.1097,14.0004 1.1497,14.0004 L22.1997,14.0004 C22.3997,14.0004 22.5597,13.8404 22.5597,13.6404 L22.5597,13.6004 L22.5597,0.8994 C22.5597,0.8694 22.5507,0.8294 22.5397,0.8004 L22.5397,0.7904 L22.5397,0.7794 C22.5297,0.7504 22.5107,0.7204 22.4897,0.6894 L22.4797,0.6804 C22.4597,0.6594 22.4397,0.6404 22.4207,0.6194 L22.4097,0.6094 C22.3807,0.5904 22.3497,0.5794 22.3197,0.5694 C22.3097,0.5694 22.3097,0.5694 22.3007,0.5604 C22.2697,0.5504 22.2297,0.5404 22.1997,0.5404 L1.1497,0.5404 C1.1197,0.5404 1.0797,0.5504 1.0497,0.5604 C1.0397,0.5604 1.0397,0.5604 1.0297,0.5694 C0.9997,0.5794 0.9697,0.6004 0.9397,0.6094 L0.9307,0.6194 C0.9107,0.6404 0.8907,0.6594 0.8697,0.6804 L0.8597,0.6894 C0.8397,0.7204 0.8297,0.7504 0.8097,0.7794 L0.8097,0.7904 L0.8097,0.8004 C0.7997,0.8194 0.7897,0.8594 0.7897,0.8904 L0.7897,0.8904 Z" id="Fill-3" fill="#363F40" mask="url(#mask-2)"></path>
                </g>
                <path d="M23.7896,5.7602 C24.6006,5.7602 25.2496,6.4202 25.2496,7.2202 C25.2496,8.0302 24.5906,8.6802 23.7896,8.6802 C22.9796,8.6802 22.3296,8.0202 22.3296,7.2202 C22.3196,6.4102 22.9796,5.7602 23.7896,5.7602 M23.7896,9.4002 C24.9896,9.4002 25.9706,8.4202 25.9706,7.2202 C25.9706,6.0202 24.9896,5.0402 23.7896,5.0402 C22.5906,5.0402 21.6096,6.0202 21.6096,7.2202 C21.6096,8.4202 22.5906,9.4002 23.7896,9.4002" id="Fill-6" fill="#363F40"></path>
                <path d="M23.7896,7.1201 C23.8406,7.1201 23.8906,7.1601 23.8906,7.2201 C23.8906,7.2801 23.8506,7.3201 23.7896,7.3201 C23.7396,7.3201 23.6896,7.2801 23.6896,7.2201 C23.6896,7.1601 23.7296,7.1201 23.7896,7.1201 M23.7896,8.0301 C24.2396,8.0301 24.6006,7.6701 24.6006,7.2201 C24.6006,6.7701 24.2396,6.4101 23.7896,6.4101 C23.3406,6.4101 22.9796,6.7701 22.9796,7.2201 C22.9706,7.6701 23.3406,8.0301 23.7896,8.0301" id="Fill-8" fill="#363F40"></path>
                <mask id="mask-4" fill="white">
                    <use xlink:href="#path-3"></use>
                </mask>
                <g id="Clip-11"></g>
                <path d="M8.5,12.89 L9.35,12.89 L9.35,1.55 L8.5,1.55 L8.5,12.89 Z M10.07,12.89 L20.53,12.89 L20.53,1.55 L10.07,1.55 L10.07,12.89 Z M23.79,1.77 C26.79,1.77 29.23,4.21 29.23,7.21 C29.23,10.21 26.79,12.65 23.79,12.65 C22.9,12.65 22.02,12.43 21.25,12.02 L21.25,2.4 C22.02,1.99 22.9,1.77 23.79,1.77 L23.79,1.77 Z M8.15,13.61 L9.71,13.61 L20.89,13.61 C21.09,13.61 21.25,13.45 21.25,13.25 L21.25,12.83 C22.04,13.19 22.92,13.38 23.79,13.38 C27.19,13.38 29.95,10.62 29.95,7.22 C29.95,3.82 27.19,1.06 23.79,1.06 C22.91,1.06 22.04,1.25 21.25,1.61 L21.25,1.19 C21.25,0.99 21.09,0.83 20.89,0.83 L9.71,0.83 L8.15,0.83 C7.95,0.83 7.79,0.99 7.79,1.19 L7.79,13.25 C7.79,13.45 7.95,13.61 8.15,13.61 L8.15,13.61 Z" id="Fill-10" fill="#363F40" mask="url(#mask-4)"></path>
                <path d="M14.3902,6.9999 C14.5402,6.9999 14.6802,6.8999 14.7302,6.7499 L15.0002,5.9199 L15.2702,6.7499 C15.3202,6.8999 15.4502,6.9999 15.6102,6.9999 L16.4902,6.9999 L15.7802,7.5099 C15.6502,7.5999 15.6002,7.7599 15.6502,7.9099 L15.9202,8.7399 L15.2102,8.2299 C15.0802,8.1399 14.9202,8.1399 14.7902,8.2299 L14.0802,8.7399 L14.3502,7.9099 C14.4002,7.7599 14.3502,7.5999 14.2202,7.5099 L13.5102,6.9999 L14.3902,6.9999 Z M13.5902,7.9399 L13.0602,9.5699 C13.0102,9.7199 13.0602,9.8799 13.1902,9.9699 C13.3202,10.0599 13.4802,10.0599 13.6102,9.9699 L15.0002,8.9599 L16.3902,9.9699 C16.4502,10.0199 16.5302,10.0399 16.6002,10.0399 C16.6702,10.0399 16.7492,10.0199 16.8102,9.9699 C16.9402,9.8799 16.9902,9.7199 16.9402,9.5699 L16.4102,7.9399 L17.8002,6.9299 C17.9302,6.8399 17.9802,6.6799 17.9302,6.5299 C17.8802,6.3799 17.7492,6.2799 17.5902,6.2799 L15.8802,6.2799 L15.3402,4.6499 C15.2902,4.4999 15.1602,4.3999 15.0002,4.3999 C14.8402,4.3999 14.7102,4.4999 14.6602,4.6499 L14.1302,6.2799 L12.4202,6.2799 C12.2702,6.2799 12.1302,6.3799 12.0802,6.5299 C12.0302,6.6799 12.0802,6.8399 12.2102,6.9299 L13.5902,7.9399 Z" id="Fill-12" fill="#363F40" mask="url(#mask-4)"></path>
                <path d="M2.0899,1.33 L3.7399,1.33 C4.4999,1.33 5.1099,1.95 5.1099,2.7 L5.1099,3.99 L0.7099,3.99 L0.7099,2.71 C0.7199,1.95 1.3399,1.33 2.0899,1.33 L2.0899,1.33 Z M0.7199,6.03 L5.1199,6.03 L5.1199,4.71 L0.7199,4.71 L0.7199,6.03 Z M4.1199,24.08 L5.1199,24.08 L5.1199,6.75 L4.1199,6.75 L4.1199,24.08 Z M0.7199,24.08 L1.7199,24.08 L1.7199,6.75 L0.7199,6.75 L0.7199,24.08 Z M2.4299,24.08 L3.3999,24.08 L3.3999,6.75 L2.4299,6.75 L2.4299,24.08 Z M0.9399,24.79 L4.9099,24.79 L3.2999,28.07 L2.5499,28.07 L0.9399,24.79 Z M0.0199,24.53 C0.0299,24.55 0.0299,24.57 0.0399,24.58 L0.0399,24.59 L2.5999,29.8 C2.6599,29.92 2.7799,30 2.9199,30 C3.0599,30 3.1799,29.92 3.2399,29.8 L5.7999,24.59 L5.7999,24.58 C5.8099,24.56 5.8099,24.55 5.8199,24.53 C5.8199,24.52 5.8199,24.52 5.8299,24.51 C5.8399,24.49 5.8399,24.46 5.8399,24.43 L5.8399,2.71 C5.8399,1.56 4.8999,0.62 3.7499,0.62 L2.0899,0.62 C0.9399,0.62 -0.0001,1.56 -0.0001,2.71 L-0.0001,24.44 C-0.0001,24.47 -0.0001,24.49 0.0099,24.52 C0.0199,24.52 0.0199,24.53 0.0199,24.53 L0.0199,24.53 Z" id="Fill-13" fill="#363F40" mask="url(#mask-4)"></path>
            </g>
        </g>
    </g>
</svg>