<?xml version="1.0" encoding="utf-8"?>
<!-- Generator: Adobe Illustrator 24.0.1, SVG Export Plug-In . SVG Version: 6.00 Build 0)  -->
<svg version="1.1" id="Laag_1" xmlns="http://www.w3.org/2000/svg" xmlns:xlink="http://www.w3.org/1999/xlink" x="0px" y="0px"
	 viewBox="0 0 34 31" style="enable-background:new 0 0 34 31;" xml:space="preserve">
<style type="text/css">
	.st0{fill:#EEBC40;}
	.st1{fill:#363F40;}
</style>
<title>design-64px-outline_book-open</title>
<desc>Created with Sketch.</desc>
<g>
	<rect x="22.81" y="10.91" class="st0" width="7.03" height="1.51"/>
	<rect x="4.74" y="3.89" class="st0" width="19.07" height="4.52"/>
	<g>
		<g>
			<g>
				<g>
					<path class="st1" d="M18,21.52H2.95c-1.11,0-2.01-0.9-2.01-2.01V2.45c0-1.11,0.9-2.01,2.01-2.01h22.08
						c1.11,0,2.01,0.9,2.01,2.01v4.01h-1V2.45c0-0.55-0.45-1-1-1H2.95c-0.55,0-1,0.45-1,1v17.06c0,0.55,0.45,1,1,1H18V21.52z"/>
				</g>
				<g>
					<rect x="16" y="21.02" class="st1" width="1" height="5.02"/>
				</g>
				<g>
					<rect x="10.98" y="21.02" class="st1" width="1" height="5.02"/>
				</g>
				<g>
					<rect x="0.94" y="25.54" class="st1" width="8.03" height="1"/>
				</g>
				<g>
					<rect x="1.44" y="16.5" class="st1" width="16.56" height="1"/>
				</g>
				<g>
					<rect x="13.49" y="18.51" class="st1" width="1" height="1"/>
				</g>
			</g>
			<g>
				<rect x="3.95" y="9.48" class="st1" width="6.52" height="1"/>
			</g>
			<g>
				<rect x="11.48" y="9.48" class="st1" width="6.52" height="1"/>
			</g>
			<g>
				<rect x="3.95" y="11.49" class="st1" width="6.52" height="1"/>
			</g>
			<g>
				<rect x="11.48" y="11.49" class="st1" width="6.52" height="1"/>
			</g>
			<g>
				<rect x="3.95" y="13.49" class="st1" width="6.52" height="1"/>
			</g>
			<g>
				<rect x="11.48" y="13.49" class="st1" width="6.52" height="1"/>
			</g>
			<g>
				<g>
					<g>
						<path class="st1" d="M31.55,26.54H20.51c-0.83,0-1.51-0.68-1.51-1.51V8.98c0-0.83,0.68-1.51,1.51-1.51h11.04
							c0.83,0,1.51,0.68,1.51,1.51v16.06C33.06,25.86,32.38,26.54,31.55,26.54z M20.51,8.47c-0.28,0-0.5,0.22-0.5,0.5v16.06
							c0,0.28,0.23,0.5,0.5,0.5h11.04c0.28,0,0.5-0.22,0.5-0.5V8.98c0-0.28-0.23-0.5-0.5-0.5H20.51z"/>
					</g>
					<g>
						<rect x="25.03" y="23.53" class="st1" width="2.01" height="1"/>
					</g>
				</g>
				<g>
					<path class="st1" d="M30.05,13.49h-8.03v-3.01h8.03V13.49z M23.02,12.49h6.02v-1h-6.02V12.49z"/>
				</g>
				<g>
					<rect x="22.02" y="14.5" class="st1" width="8.03" height="1"/>
				</g>
				<g>
					<rect x="22.02" y="16.5" class="st1" width="8.03" height="1"/>
				</g>
				<g>
					<rect x="22.02" y="18.51" class="st1" width="8.03" height="1"/>
				</g>
				<g>
					<rect x="22.02" y="20.52" class="st1" width="8.03" height="1"/>
				</g>
			</g>
			<g>
				<g>
					<polygon class="st1" points="18,8.47 3.95,8.47 3.95,3.46 24.03,3.46 24.03,6.47 23.02,6.47 23.02,4.46 4.96,4.46 4.96,7.47 
						18,7.47 					"/>
				</g>
			</g>
			<g>
				<rect x="0.94" y="27.54" class="st1" width="32.11" height="1"/>
			</g>
			<g>
				<rect x="4.96" y="28.04" class="st1" width="1" height="2.51"/>
			</g>
			<g>
				<rect x="7.97" y="28.04" class="st1" width="1" height="2.51"/>
			</g>
			<g>
				<rect x="25.03" y="28.04" class="st1" width="1" height="2.51"/>
			</g>
			<g>
				<rect x="28.04" y="28.04" class="st1" width="1" height="2.51"/>
			</g>
			<g>
				<rect x="9.97" y="25.54" class="st1" width="8.03" height="1"/>
			</g>
			<g>
				<rect x="5.96" y="5.46" class="st1" width="1" height="1"/>
			</g>
			<g>
				<rect x="7.97" y="5.46" class="st1" width="1" height="1"/>
			</g>
			<g>
				<rect x="9.97" y="5.46" class="st1" width="1" height="1"/>
			</g>
			<g>
				<rect x="11.98" y="5.46" class="st1" width="1" height="1"/>
			</g>
			<g>
				<rect x="13.99" y="5.46" class="st1" width="1" height="1"/>
			</g>
		</g>
	</g>
</g>
</svg>
